<svg xmlns="http://www.w3.org/2000/svg" viewBox="60.8 549.3 620 476.5" enable-background="new 60.8 549.3 620 476.5"><path fill="#E69E00" d="M206.5 961.1h461.8l-231-397z"/><path fill="#F72331" d="M235.2 906.5h404.4l-202.3-347.7z"/><path fill="#009995" d="M265 855.1h344.8l-172.5-296.3z"/><path fill="#801DE1" d="M295.6 803.6h283.6l-141.9-244.8z"/><path fill="#3B5998" d="M331.5 740.9h211.9l-106.1-182.1z"/><path stroke="#000" stroke-width="6" fill="none" d="M206.5 958.8h461.8l-231-397z"/><path stroke="#000" stroke-width="3" fill="none" d="M70.9 741h474.5M70.9 804.5h508.2M70.9 855.3h539.5M70.9 906.8h570M71 961.1h600.7"/><text transform="translate(237.803 1016.369)" font-family="'Helvetica'" font-size="26.862">Web Design’s Hierarchy of Needs</text><text transform="translate(69.844 955.541)" font-family="'Helvetica'" font-size="17.908">Physiological</text><text transform="translate(69.844 900.766)" font-family="'Helvetica'" font-size="17.908">Safety</text><text transform="translate(69.844 849.243)" font-family="'Helvetica'" font-size="17.908">Love / Belonging</text><text transform="translate(69.844 799.233)" font-family="'Helvetica'" font-size="17.908">Esteem</text><text transform="translate(69.844 734.371)" font-family="'Helvetica'" font-size="17.908">Self-Actualization</text><text transform="translate(382.497 936.633)" fill="#E8F4FB" font-family="'Helvetica'" font-size="13.431">content, navigation</text><text transform="translate(327.645 884.69)" fill="#E8F4FB" font-family="'Helvetica'" font-size="13.431">information architecture, predictability</text><text transform="translate(320.169 833.663)" fill="#E8F4FB" font-family="'Helvetica'" font-size="13.431">performance, progressive enhancement</text><text transform="translate(375.788 777.284)" fill="#E8F4FB" font-family="'Helvetica'" font-size="13.431">content-first branding</text><text transform="translate(404.532 672.894)" enable-background="new"><tspan x="0" y="0" fill="#E8F4FB" font-family="'Helvetica'" font-size="13.431">design flair,</tspan><tspan x="3.4" y="16.1" fill="#E8F4FB" font-family="'Helvetica'" font-size="13.431">animation,</tspan><tspan x="-17.5" y="32.2" fill="#E8F4FB" font-family="'Helvetica'" font-size="13.431">interaction, social</tspan></text></svg>